# xmcd
#
# Track frame offsets: 
#        150
#        18180
#        36031
#        50695
#        67656
#        84177
#        103203
#        117627
#        140182
#        156510
#        174115
#        199200
#        214036
#        229302
#        247272
#
# Disc length: 3492 seconds
#
# Revision: 0
# Processed by: cddbd v1.5.2PL0 Copyright (c) Steve Scherf et al.
# Submitted via: ExactAudioCopyFreeDBPlugin 1.0
#
DISCID=d60da20f
DTITLE=Helmut Lotti - Faith, Hope and Love
DYEAR=2015
DGENRE=Blues
TTITLE0=Faith, Hope and Love
TTITLE1=Everybody Hurts
TTITLE2=I've Got Confidence
TTITLE3=Georgia Lee
TTITLE4=Won't You Help Me?
TTITLE5=A Lonely Road
TTITLE6=Hashivenu (with Lara Chedraoui)
TTITLE7=Insha'Allah
TTITLE8=Serving the Lord
TTITLE9=When Bad Luck Strikes
TTITLE10=Make - Believe
TTITLE11=The Calling
TTITLE12=I Like the Way You Lie
TTITLE13=Higher and Higher
TTITLE14=Sweet Love of Mine (Theme of the Deer Hunter)
EXTD=
EXTT0=
EXTT1=
EXTT2=
EXTT3=
EXTT4=
EXTT5=
EXTT6=
EXTT7=
EXTT8=
EXTT9=
EXTT10=
EXTT11=
EXTT12=
EXTT13=
EXTT14=
PLAYORDER=
